<svg id="e0BLwG8N5VP1" xmlns="http://www.w3.org/2000/svg" xmlns:xlink="http://www.w3.org/1999/xlink" viewBox="0 0 640 480" shape-rendering="geometricPrecision" text-rendering="geometricPrecision">
<path d="M320,130c60.75132,0,110,49.24868,110,110s-49.24868,110-110,110c-35.1306,0-66.41477-16.46851-86.55356-42.10656h13.13302C264.84681,327.63834,290.9798,340,320,340c55.22847,0,100-44.77153,100-100s-44.77153-100-100-100c-29.0202,0-55.15319,12.36166-73.42054,32.10656h-13.13302C253.58523,146.4685,284.86941,130,320,130Z" fill="#d2dbed" fill-opacity="0.1" stroke="#000"/>
<ellipse rx="10" ry="10" transform="translate(242 170)" fill="#d2dbed" stroke-width="0"/>
<ellipse rx="10" ry="10" transform="translate(425 240)" fill="#d2dbed" stroke-width="0"/>
<ellipse rx="10" ry="10" transform="translate(392.516617 313)" fill="#d2dbed" stroke-width="0"/>
<ellipse rx="10" ry="10" transform="translate(390.516617 163)" fill="#d2dbed" stroke-width="0"/>
<ellipse rx="10" ry="10" transform="translate(317 345)" fill="#d2dbed" stroke-width="0"/>
<ellipse rx="10" ry="10" transform="translate(318 135)" fill="#d2dbed" stroke-width="0"/>
<ellipse rx="10" ry="10" transform="translate(242 308)" fill="#d2dbed" stroke-width="0"/></svg>